<svg width="45" height="37" viewBox="0 0 45 37" fill="none" xmlns="http://www.w3.org/2000/svg">
<path d="M41.6667 0H2.77778C2.04107 0 1.33453 0.292658 0.813592 0.813592C0.292658 1.33453 0 2.04107 0 2.77778V33.3333C0 34.07 0.292658 34.7766 0.813592 35.2975C1.33453 35.8185 2.04107 36.1111 2.77778 36.1111H41.6667C42.4034 36.1111 43.1099 35.8185 43.6309 35.2975C44.1518 34.7766 44.4444 34.07 44.4444 33.3333V2.77778C44.4444 2.04107 44.1518 1.33453 43.6309 0.813592C43.1099 0.292658 42.4034 0 41.6667 0ZM28.5556 29.0833L18.6944 14.3889L9.88889 27.2778L3.63889 21.7222L5.55556 19.5139L9.30556 22.8333L18.6944 9.11111L28.6806 23.9861L38.4028 11.1111L40.7639 12.8889L28.5556 29.0833Z" fill="#4D4D4D"/>
</svg>
