<svg width="62" height="62" viewBox="0 0 80 80" fill="none" xmlns="http://www.w3.org/2000/svg">
<path d="M40 0C32.0888 0 24.3552 2.34596 17.7772 6.74121C11.1992 11.1365 6.07234 17.3836 3.04484 24.6927C0.0173314 32.0017 -0.774802 40.0444 0.768607 47.8036C2.31202 55.5628 6.12164 62.6902 11.7157 68.2843C17.3098 73.8784 24.4372 77.688 32.1964 79.2314C39.9556 80.7748 47.9983 79.9827 55.3073 76.9552C62.6164 73.9277 68.8635 68.8008 73.2588 62.2228C77.654 55.6448 80 47.9112 80 40C80 29.3913 75.7857 19.2172 68.2843 11.7157C60.7828 4.21427 50.6087 0 40 0ZM40 14.2857C42.5429 14.2857 45.0287 15.0398 47.1431 16.4525C49.2574 17.8653 50.9053 19.8733 51.8785 22.2226C52.8516 24.572 53.1062 27.1571 52.6101 29.6512C52.114 32.1452 50.8895 34.4361 49.0914 36.2342C47.2933 38.0323 45.0024 39.2569 42.5083 39.7529C40.0143 40.249 37.4291 39.9944 35.0798 39.0213C32.7305 38.0482 30.7225 36.4002 29.3097 34.2859C27.8969 32.1716 27.1429 29.6858 27.1429 27.1429C27.1391 25.4534 27.4691 23.7798 28.1139 22.2182C28.7587 20.6566 29.7056 19.2377 30.9002 18.0431C32.0949 16.8484 33.5137 15.9015 35.0753 15.2567C36.6369 14.6119 38.3105 14.2819 40 14.2857ZM62.8571 65.4857C56.5915 71.1495 48.4461 74.2853 40 74.2853C31.5539 74.2853 23.4085 71.1495 17.1429 65.4857V63.8286C17.0347 59.9166 18.4743 56.1198 21.1492 53.2631C23.824 50.4064 27.5179 48.7204 31.4286 48.5714H48.5714C52.4644 48.7277 56.1409 50.404 58.8118 53.2405C61.4827 56.077 62.9351 59.8475 62.8571 63.7428V65.4857Z" fill="#4D4D4D"/>
</svg>
