<svg width="16" height="18" viewBox="0 0 22 26" fill="none" xmlns="http://www.w3.org/2000/svg">
<path fill-rule="evenodd" clip-rule="evenodd" d="M21.4208 12.9564C21.5664 13.1015 21.6818 13.2739 21.7606 13.4638C21.8393 13.6536 21.8799 13.8571 21.8799 14.0626C21.8799 14.2681 21.8393 14.4716 21.7606 14.6615C21.6818 14.8513 21.5664 15.0237 21.4208 15.1689L12.0458 24.5439C11.9007 24.6894 11.7283 24.8048 11.5384 24.8836C11.3486 24.9624 11.1451 25.0029 10.9396 25.0029C10.7341 25.0029 10.5306 24.9624 10.3407 24.8836C10.1509 24.8048 9.97848 24.6894 9.83334 24.5439L0.45834 15.1689C0.164944 14.8755 0.000118256 14.4775 0.000118256 14.0626C0.000118256 13.6477 0.164944 13.2498 0.45834 12.9564C0.751736 12.663 1.14967 12.4981 1.56459 12.4981C1.97952 12.4981 2.37745 12.663 2.67084 12.9564L10.9396 21.2282L19.2083 12.9564C19.3535 12.8108 19.5259 12.6954 19.7157 12.6166C19.9056 12.5379 20.1091 12.4973 20.3146 12.4973C20.5201 12.4973 20.7236 12.5379 20.9134 12.6166C21.1033 12.6954 21.2757 12.8108 21.4208 12.9564Z" fill="#8D8D8D"/>
<path fill-rule="evenodd" clip-rule="evenodd" d="M10.9395 0C11.3539 0 11.7513 0.16462 12.0443 0.457646C12.3373 0.750672 12.502 1.1481 12.502 1.5625L12.502 21.875C12.502 22.2894 12.3373 22.6868 12.0443 22.9799C11.7513 23.2729 11.3539 23.4375 10.9395 23.4375C10.5251 23.4375 10.1276 23.2729 9.8346 22.9799C9.54157 22.6868 9.37695 22.2894 9.37695 21.875L9.37695 1.5625C9.37695 1.1481 9.54157 0.750672 9.8346 0.457646C10.1276 0.16462 10.5251 0 10.9395 0Z" fill="#8D8D8D"/>
</svg>
