<svg width="24" height="24" viewBox="0 0 50 50" fill="black" xmlns="http://www.w3.org/2000/svg">
<path d="M8.33317 41.6667H12.4998V20.8334C12.4998 20.2809 12.7193 19.751 13.11 19.3603C13.5007 18.9696 14.0306 18.7501 14.5832 18.7501H39.5832V14.5834C39.5832 14.0309 39.3637 13.501 38.973 13.1103C38.5823 12.7196 38.0524 12.5001 37.4998 12.5001H31.1436C30.6186 7.82508 26.6873 4.16675 21.8748 4.16675C17.0623 4.16675 13.1311 7.82508 12.6061 12.5001H6.24984C5.6973 12.5001 5.1674 12.7196 4.7767 13.1103C4.386 13.501 4.1665 14.0309 4.1665 14.5834V37.5001C4.1665 38.6051 4.60549 39.665 5.38689 40.4464C6.16829 41.2278 7.2281 41.6667 8.33317 41.6667ZM21.8748 8.33341C24.3894 8.33341 26.4957 10.1251 26.979 12.5001H16.7707C17.254 10.1251 19.3603 8.33341 21.8748 8.33341Z" fill="#0156ED"/>
<path d="M43.7498 22.9167H18.7498C18.1973 22.9167 17.6674 23.1362 17.2767 23.5269C16.886 23.9176 16.6665 24.4475 16.6665 25.0001V41.6667C16.6665 42.7718 17.1055 43.8316 17.8869 44.613C18.6683 45.3944 19.7281 45.8334 20.8332 45.8334H41.6665C42.7716 45.8334 43.8314 45.3944 44.6128 44.613C45.3942 43.8316 45.8332 42.7718 45.8332 41.6667V25.0001C45.8332 24.4475 45.6137 23.9176 45.223 23.5269C44.8323 23.1362 44.3024 22.9167 43.7498 22.9167ZM31.2498 37.5001C25.5061 37.5001 20.8332 32.8272 20.8332 27.0834H24.9998C24.9998 30.5292 27.804 33.3334 31.2498 33.3334C34.6957 33.3334 37.4998 30.5292 37.4998 27.0834H41.6665C41.6665 32.8272 36.9936 37.5001 31.2498 37.5001Z" fill="#0156ED"/>
</svg>
